<?xml version="1.0" encoding="UTF-8" standalone="no"?>
<!-- Created with Inkscape (http://www.inkscape.org/) -->

<svg
   xmlns:dc="http://purl.org/dc/elements/1.1/"
   xmlns:cc="http://creativecommons.org/ns#"
   xmlns:rdf="http://www.w3.org/1999/02/22-rdf-syntax-ns#"
   xmlns:svg="http://www.w3.org/2000/svg"
   xmlns="http://www.w3.org/2000/svg"
   xmlns:sodipodi="http://sodipodi.sourceforge.net/DTD/sodipodi-0.dtd"
   xmlns:inkscape="http://www.inkscape.org/namespaces/inkscape"
   width="650"
   height="200"
   viewBox="0 0 650.00001 199.99999"
   id="svg7016"
   version="1.1"
   inkscape:version="0.91 r"
   sodipodi:docname="bookmarkbar.svg">
  <defs
     id="defs7018">
    <marker
       inkscape:stockid="Arrow1Lstart"
       orient="auto"
       refY="0.0"
       refX="0.0"
       id="Arrow1Lstart"
       style="overflow:visible"
       inkscape:isstock="true">
      <path
         id="path4220"
         d="M 0.0,0.0 L 5.0,-5.0 L -12.5,0.0 L 5.0,5.0 L 0.0,0.0 z "
         style="fill-rule:evenodd;stroke:#000000;stroke-width:1.0pt"
         transform="scale(0.8) translate(12.5,0)" />
    </marker>
    <marker
       inkscape:isstock="true"
       style="overflow:visible"
       id="marker4653"
       refX="0"
       refY="0"
       orient="auto"
       inkscape:stockid="Arrow1Lstart">
      <path
         transform="matrix(0.8,0,0,0.8,10,0)"
         style="fill:#000000;fill-opacity:1;fill-rule:evenodd;stroke:#000000;stroke-width:1pt;stroke-opacity:1"
         d="M 0,0 5,-5 -12.5,0 5,5 0,0 Z"
         id="path4655"
         inkscape:connector-curvature="0" />
    </marker>
    <marker
       inkscape:stockid="Arrow1Mstart"
       orient="auto"
       refY="0"
       refX="0"
       id="Arrow1Mstart"
       style="overflow:visible"
       inkscape:isstock="true">
      <path
         inkscape:connector-curvature="0"
         id="path4475"
         d="M 0,0 5,-5 -12.5,0 5,5 0,0 Z"
         style="fill:#000000;fill-opacity:1;fill-rule:evenodd;stroke:#000000;stroke-width:1pt;stroke-opacity:1"
         transform="matrix(0.4,0,0,0.4,4,0)" />
    </marker>
  </defs>
  <sodipodi:namedview
     id="base"
     pagecolor="#ffffff"
     bordercolor="#666666"
     borderopacity="1.0"
     inkscape:pageopacity="0.0"
     inkscape:pageshadow="2"
     inkscape:zoom="1.979899"
     inkscape:cx="245.0353"
     inkscape:cy="97.332294"
     inkscape:document-units="px"
     inkscape:current-layer="layer1"
     showgrid="false"
     fit-margin-top="0"
     fit-margin-left="0"
     fit-margin-right="0"
     fit-margin-bottom="0"
     inkscape:window-width="1920"
     inkscape:window-height="1004"
     inkscape:window-x="1920"
     inkscape:window-y="25"
     inkscape:window-maximized="1"
     units="px" />
  <metadata
     id="metadata7021">
    <rdf:RDF>
      <cc:Work
         rdf:about="">
        <dc:format>image/svg+xml</dc:format>
        <dc:type
           rdf:resource="http://purl.org/dc/dcmitype/StillImage" />
        <dc:title />
      </cc:Work>
    </rdf:RDF>
  </metadata>
  <g
     inkscape:label="Layer 1"
     inkscape:groupmode="layer"
     id="layer1"
     transform="translate(243.39747,-534.50037)">
    <g
       id="g5101"
       style="opacity:0.61000001"
       transform="translate(-406.25534,292.74089)">
      <path
         inkscape:connector-curvature="0"
         style="opacity:1;fill:#c8e0eb;fill-opacity:1;stroke:none;stroke-width:4.05000019;stroke-miterlimit:4;stroke-dasharray:none;stroke-dashoffset:0;stroke-opacity:1"
         d="m 51.830078,379.66992 c -2.817194,0 -5.083984,2.26875 -5.083984,5.08594 l 0,36.66406 c 0,2.8172 2.26679,5.08399 5.083984,5.08399 l 636.722652,0 4.98829,-4.98829 -6,-5.99804 6,-6 -6,-6 6,-6 -6,-6 6,-6 -5.84766,-5.84766 -635.863282,0 z"
         transform="translate(116.11178,15.255563)"
         id="rect4984" />
      <g
         id="text4986"
         style="font-style:normal;font-weight:normal;font-size:20.78871727px;line-height:125%;font-family:sans-serif;letter-spacing:0px;word-spacing:0px;fill:#000000;fill-opacity:1;stroke:none;stroke-width:1px;stroke-linecap:butt;stroke-linejoin:miter;stroke-opacity:1">
        <path
           id="path4991"
           style="font-style:normal;font-variant:normal;font-weight:normal;font-stretch:normal;font-family:'PT Sans';-inkscape-font-specification:'PT Sans'"
           d="m 174.04953,409.88863 7.9205,0 0,1.53837 -6.19504,0 0,4.9685 5.77926,0 0,1.53837 -5.77926,0 0,6.50686 -1.72546,0 0,-14.5521 z"
           inkscape:connector-curvature="0" />
        <path
           id="path4993"
           style="font-style:normal;font-variant:normal;font-weight:normal;font-stretch:normal;font-family:'PT Sans';-inkscape-font-specification:'PT Sans'"
           d="m 184.06092,419.24356 q 0,-2.64017 1.16417,-4.03302 1.18495,-1.41363 3.38856,-1.41363 1.16417,0 2.0165,0.39499 0.87313,0.37419 1.43442,1.1018 0.5613,0.70682 0.83155,1.72546 0.27026,0.99786 0.27026,2.2244 0,2.64016 -1.18496,4.0538 -1.16417,1.39284 -3.36777,1.39284 -1.16417,0 -2.0373,-0.3742 -0.85233,-0.39498 -1.41363,-1.1018 -0.56129,-0.7276 -0.83155,-1.72546 -0.27025,-1.01865 -0.27025,-2.24518 z m 1.72546,0 q 0,0.78997 0.14552,1.51757 0.16631,0.72761 0.49893,1.26811 0.33262,0.54051 0.87313,0.87313 0.54051,0.33262 1.30969,0.33262 2.82726,0.0208 2.82726,-3.99143 0,-0.81076 -0.16631,-1.53837 -0.14552,-0.7276 -0.47814,-1.26811 -0.33262,-0.54051 -0.87312,-0.85234 -0.54051,-0.33262 -1.30969,-0.33262 -2.82727,-0.0208 -2.82727,3.99144 z"
           inkscape:connector-curvature="0" />
        <path
           id="path4995"
           style="font-style:normal;font-variant:normal;font-weight:normal;font-stretch:normal;font-family:'PT Sans';-inkscape-font-specification:'PT Sans'"
           d="m 200.67435,415.64711 q -0.62366,-0.20789 -1.18495,-0.20789 -0.89392,0 -1.41364,0.49893 -0.51971,0.47814 -0.64445,1.22653 l 0,7.27605 -1.66309,0 0,-10.39435 1.16416,0 0.31183,1.26811 0.0832,0 q 0.39498,-0.70682 0.93549,-1.08102 0.5613,-0.39498 1.41363,-0.39498 0.60288,0 1.35127,0.20789 l -0.35341,1.60073 z"
           inkscape:connector-curvature="0" />
        <path
           id="path4997"
           style="font-style:normal;font-variant:normal;font-weight:normal;font-stretch:normal;font-family:'PT Sans';-inkscape-font-specification:'PT Sans'"
           d="m 216.35782,428.59848 -1.6631,0 0,-5.19718 -0.0832,0 q -0.41577,0.62366 -1.06022,0.95628 -0.62366,0.33262 -1.6631,0.33262 -2.07887,0 -3.07673,-1.30969 -0.99786,-1.33048 -0.99786,-4.09538 0,-2.68174 1.2889,-4.0538 1.2889,-1.37205 3.76276,-1.37205 1.1018,0 2.05808,0.20788 0.97707,0.20789 1.43443,0.43657 l 0,14.09475 z m -4.17854,-5.36349 q 1.06023,0 1.6631,-0.54051 0.60287,-0.5405 0.85234,-1.66309 l 0,-5.32192 q -0.76918,-0.39498 -2.12045,-0.39498 -1.43442,0 -2.24518,0.97707 -0.78997,0.95628 -0.78997,2.97278 0,0.87313 0.14552,1.62152 0.14552,0.72761 0.45735,1.24733 0.31183,0.51972 0.81076,0.81076 0.49893,0.29104 1.22653,0.29104 z"
           inkscape:connector-curvature="0" />
        <path
           id="path4999"
           style="font-style:normal;font-variant:normal;font-weight:normal;font-stretch:normal;font-family:'PT Sans';-inkscape-font-specification:'PT Sans'"
           d="m 221.05834,414.04638 0,5.92478 q 0,0.81076 0.0832,1.43442 0.10395,0.60287 0.33262,1.01865 0.22868,0.39498 0.62366,0.60287 0.39499,0.20789 0.99786,0.20789 0.5613,0 0.99786,-0.16631 0.43656,-0.1871 0.76918,-0.49893 0.35341,-0.31183 0.60288,-0.70682 0.27025,-0.41577 0.43656,-0.87312 l 0,-6.94343 1.6631,0 0,7.44236 q 0,0.74839 0.0416,1.55915 0.0624,0.78997 0.1871,1.39284 l -1.14338,0 -0.41577,-1.6423 -0.10394,0 q -0.47815,0.81076 -1.28891,1.35126 -0.81076,0.54051 -2.05808,0.54051 -0.83155,0 -1.476,-0.20789 -0.62366,-0.1871 -1.06022,-0.68603 -0.41578,-0.49892 -0.64445,-1.33047 -0.20789,-0.85234 -0.20789,-2.14124 l 0,-6.27819 1.6631,0 z"
           inkscape:connector-curvature="0" />
        <path
           id="path5001"
           style="font-style:normal;font-variant:normal;font-weight:normal;font-stretch:normal;font-family:'PT Sans';-inkscape-font-specification:'PT Sans'"
           d="m 231.12138,414.04638 1.66309,0 0,10.39435 -1.66309,0 0,-10.39435 z m -0.35341,-3.15989 q 0,-0.47814 0.31183,-0.81076 0.33262,-0.35341 0.83155,-0.35341 0.49893,0 0.85233,0.35341 0.35341,0.33262 0.35341,0.81076 0,0.47814 -0.35341,0.78997 -0.3534,0.31183 -0.85233,0.31183 -0.49893,0 -0.83155,-0.31183 -0.31183,-0.31183 -0.31183,-0.78997 z"
           inkscape:connector-curvature="0" />
        <path
           id="path5003"
           style="font-style:normal;font-variant:normal;font-weight:normal;font-stretch:normal;font-family:'PT Sans';-inkscape-font-specification:'PT Sans'"
           d="m 243.41953,423.75471 q -0.62366,0.45735 -1.476,0.68602 -0.85234,0.24947 -1.78783,0.24947 -1.20575,0 -2.0373,-0.3742 -0.83154,-0.39498 -1.37205,-1.1018 -0.51972,-0.7276 -0.76918,-1.72546 -0.22868,-1.01865 -0.22868,-2.24518 0,-2.64017 1.16417,-4.03302 1.16417,-1.41363 3.34698,-1.41363 0.99786,0 1.68389,0.16631 0.70681,0.14552 1.26811,0.43656 l -0.47814,1.43443 q -0.47814,-0.27026 -1.06023,-0.41578 -0.58208,-0.16631 -1.24732,-0.16631 -2.952,0 -2.952,3.99144 0,0.78997 0.14552,1.51757 0.16631,0.70682 0.51972,1.26811 0.3742,0.54051 0.95628,0.87313 0.60288,0.33262 1.476,0.33262 0.7484,0 1.33048,-0.22868 0.60287,-0.22867 0.97707,-0.51971 l 0.54051,1.26811 z"
           inkscape:connector-curvature="0" />
        <path
           id="path5005"
           style="font-style:normal;font-variant:normal;font-weight:normal;font-stretch:normal;font-family:'PT Sans';-inkscape-font-specification:'PT Sans'"
           d="m 248.32924,419.76327 -0.95628,0 0,4.67746 -1.6631,0 0,-14.5521 1.6631,0 0,8.856 0.85234,-0.29105 3.22225,-4.4072 1.93335,0 -3.18067,4.17853 -0.85234,0.68603 1.03943,0.83154 3.47172,4.69825 -2.05808,0 -3.47172,-4.67746 z"
           inkscape:connector-curvature="0" />
        <path
           id="path5007"
           style="font-style:normal;font-variant:normal;font-weight:normal;font-stretch:normal;font-family:'PT Sans';-inkscape-font-specification:'PT Sans'"
           d="m 260.44484,414.81556 q 0.78997,-0.47814 1.8294,-0.70682 1.06023,-0.22867 2.20361,-0.22867 1.08101,0 1.72546,0.29104 0.66524,0.29104 0.99786,0.76918 0.35341,0.45735 0.45735,1.01865 0.12473,0.56129 0.12473,1.12259 0,1.24732 -0.0624,2.43228 -0.0624,1.18496 -0.0624,2.24518 0,0.76918 0.0624,1.45521 0.0624,0.68603 0.22867,1.26811 l -1.22653,0 -0.43656,-1.45521 -0.10395,0 q -0.1871,0.29104 -0.47814,0.58209 -0.27025,0.27025 -0.66524,0.49893 -0.39498,0.20788 -0.9147,0.3534 -0.51972,0.14552 -1.18496,0.14552 -0.66524,0 -1.24732,-0.20788 -0.5613,-0.20789 -0.97707,-0.58209 -0.41578,-0.39498 -0.66524,-0.93549 -0.22868,-0.54051 -0.22868,-1.22653 0,-0.91471 0.3742,-1.51758 0.3742,-0.62366 1.03944,-0.97707 0.68602,-0.3742 1.62152,-0.51972 0.95628,-0.16631 2.09966,-0.16631 0.29104,0 0.56129,0 0.29104,0 0.58209,0.0416 0.0624,-0.62366 0.0624,-1.12259 0,-1.14338 -0.45735,-1.60073 -0.45735,-0.45735 -1.6631,-0.45735 -0.3534,0 -0.76918,0.0624 -0.39498,0.0416 -0.83155,0.14552 -0.41577,0.0832 -0.81076,0.22868 -0.37419,0.12473 -0.66524,0.29104 l -0.51971,-1.24732 z m 2.95199,8.33627 q 0.58209,0 1.03944,-0.14552 0.45735,-0.16631 0.78997,-0.39498 0.33262,-0.24947 0.54051,-0.54051 0.22867,-0.29104 0.33262,-0.56129 l 0,-1.72547 q -0.29105,-0.0208 -0.60288,-0.0208 -0.29104,-0.0208 -0.58208,-0.0208 -0.64445,0 -1.26811,0.0832 -0.60287,0.0624 -1.08102,0.27025 -0.45735,0.1871 -0.74839,0.54051 -0.27025,0.33262 -0.27025,0.85234 0,0.7276 0.51972,1.20574 0.51971,0.45735 1.33047,0.45735 z"
           inkscape:connector-curvature="0" />
        <path
           id="path5009"
           style="font-style:normal;font-variant:normal;font-weight:normal;font-stretch:normal;font-family:'PT Sans';-inkscape-font-specification:'PT Sans'"
           d="m 278.01325,423.75471 q -0.62366,0.45735 -1.47599,0.68602 -0.85234,0.24947 -1.78783,0.24947 -1.20575,0 -2.0373,-0.3742 -0.83155,-0.39498 -1.37205,-1.1018 -0.51972,-0.7276 -0.76919,-1.72546 -0.22867,-1.01865 -0.22867,-2.24518 0,-2.64017 1.16417,-4.03302 1.16416,-1.41363 3.34698,-1.41363 0.99786,0 1.68389,0.16631 0.70681,0.14552 1.26811,0.43656 l -0.47814,1.43443 q -0.47814,-0.27026 -1.06023,-0.41578 -0.58208,-0.16631 -1.24732,-0.16631 -2.952,0 -2.952,3.99144 0,0.78997 0.14552,1.51757 0.16631,0.70682 0.51972,1.26811 0.3742,0.54051 0.95628,0.87313 0.60287,0.33262 1.476,0.33262 0.74839,0 1.33048,-0.22868 0.60287,-0.22867 0.97707,-0.51971 l 0.5405,1.26811 z"
           inkscape:connector-curvature="0" />
        <path
           id="path5011"
           style="font-style:normal;font-variant:normal;font-weight:normal;font-stretch:normal;font-family:'PT Sans';-inkscape-font-specification:'PT Sans'"
           d="m 286.9053,423.75471 q -0.62366,0.45735 -1.476,0.68602 -0.85234,0.24947 -1.78783,0.24947 -1.20575,0 -2.03729,-0.3742 -0.83155,-0.39498 -1.37206,-1.1018 -0.51972,-0.7276 -0.76918,-1.72546 -0.22868,-1.01865 -0.22868,-2.24518 0,-2.64017 1.16417,-4.03302 1.16417,-1.41363 3.34698,-1.41363 0.99786,0 1.68389,0.16631 0.70682,0.14552 1.26811,0.43656 l -0.47814,1.43443 q -0.47814,-0.27026 -1.06022,-0.41578 -0.58209,-0.16631 -1.24733,-0.16631 -2.952,0 -2.952,3.99144 0,0.78997 0.14553,1.51757 0.16631,0.70682 0.51971,1.26811 0.3742,0.54051 0.95628,0.87313 0.60288,0.33262 1.476,0.33262 0.7484,0 1.33048,-0.22868 0.60287,-0.22867 0.97707,-0.51971 l 0.54051,1.26811 z"
           inkscape:connector-curvature="0" />
        <path
           id="path5013"
           style="font-style:normal;font-variant:normal;font-weight:normal;font-stretch:normal;font-family:'PT Sans';-inkscape-font-specification:'PT Sans'"
           d="m 296.29628,423.60919 q -0.62366,0.49893 -1.57994,0.78997 -0.9355,0.29104 -1.99572,0.29104 -1.18496,0 -2.05808,-0.3742 -0.87313,-0.39498 -1.43442,-1.1018 -0.5613,-0.7276 -0.83155,-1.72546 -0.27026,-0.99786 -0.27026,-2.24518 0,-2.66096 1.18496,-4.0538 1.18496,-1.39285 3.38856,-1.39285 0.70682,0 1.41363,0.16631 0.70682,0.14552 1.26812,0.58209 0.56129,0.43656 0.9147,1.24732 0.35341,0.78997 0.35341,2.09966 0,0.68603 -0.12474,1.51758 l -6.67317,0 q 0,0.9147 0.1871,1.62152 0.18709,0.70681 0.58208,1.20574 0.39498,0.47814 1.01865,0.74839 0.64445,0.24947 1.55915,0.24947 0.70682,0 1.41363,-0.24947 0.70682,-0.24946 1.06023,-0.58208 l 0.62366,1.20575 z m -3.57566,-8.35707 q -1.22653,0 -1.97493,0.64445 -0.7276,0.64445 -0.87312,2.20361 l 5.1556,0 q 0,-1.57995 -0.60288,-2.20361 -0.60287,-0.64445 -1.70467,-0.64445 z"
           inkscape:connector-curvature="0" />
        <path
           id="path5015"
           style="font-style:normal;font-variant:normal;font-weight:normal;font-stretch:normal;font-family:'PT Sans';-inkscape-font-specification:'PT Sans'"
           d="m 303.83869,421.61347 q 0,-0.62366 -0.3742,-0.97707 -0.3742,-0.35341 -0.93549,-0.58208 -0.54051,-0.24947 -1.20575,-0.45736 -0.64445,-0.22867 -1.20575,-0.56129 -0.5405,-0.35341 -0.9147,-0.89392 -0.3742,-0.5405 -0.3742,-1.45521 0,-1.49678 0.85234,-2.18281 0.85234,-0.70682 2.36992,-0.70682 1.12259,0 1.87098,0.20789 0.76918,0.1871 1.33048,0.45735 l -0.39499,1.37206 q -0.47814,-0.22868 -1.16417,-0.39499 -0.66523,-0.1871 -1.43442,-0.1871 -0.9147,0 -1.35126,0.31183 -0.41578,0.31183 -0.41578,1.08102 0,0.5405 0.3742,0.85233 0.3742,0.29105 0.9147,0.54051 0.5613,0.22868 1.20575,0.45735 0.66524,0.22868 1.20574,0.60287 0.5613,0.3742 0.9355,0.95629 0.37419,0.56129 0.37419,1.49678 0,0.66524 -0.22867,1.24733 -0.20789,0.58208 -0.66524,0.99785 -0.45735,0.41578 -1.14338,0.64445 -0.66524,0.24947 -1.57994,0.24947 -1.18496,0 -2.01651,-0.22868 -0.83155,-0.22867 -1.39284,-0.5405 l 0.49893,-1.41364 q 0.47814,0.27026 1.24732,0.49893 0.76918,0.22868 1.55915,0.22868 0.89392,0 1.476,-0.35341 0.58209,-0.35341 0.58209,-1.26811 z"
           inkscape:connector-curvature="0" />
        <path
           id="path5017"
           style="font-style:normal;font-variant:normal;font-weight:normal;font-stretch:normal;font-family:'PT Sans';-inkscape-font-specification:'PT Sans'"
           d="m 312.60893,421.61347 q 0,-0.62366 -0.3742,-0.97707 -0.3742,-0.35341 -0.93549,-0.58208 -0.54051,-0.24947 -1.20575,-0.45736 -0.64445,-0.22867 -1.20574,-0.56129 -0.54051,-0.35341 -0.91471,-0.89392 -0.37419,-0.5405 -0.37419,-1.45521 0,-1.49678 0.85233,-2.18281 0.85234,-0.70682 2.36992,-0.70682 1.12259,0 1.87098,0.20789 0.76918,0.1871 1.33048,0.45735 l -0.39499,1.37206 q -0.47814,-0.22868 -1.16416,-0.39499 -0.66524,-0.1871 -1.43443,-0.1871 -0.9147,0 -1.35126,0.31183 -0.41578,0.31183 -0.41578,1.08102 0,0.5405 0.3742,0.85233 0.3742,0.29105 0.9147,0.54051 0.5613,0.22868 1.20575,0.45735 0.66524,0.22868 1.20574,0.60287 0.5613,0.3742 0.9355,0.95629 0.37419,0.56129 0.37419,1.49678 0,0.66524 -0.22867,1.24733 -0.20789,0.58208 -0.66524,0.99785 -0.45735,0.41578 -1.14338,0.64445 -0.66524,0.24947 -1.57994,0.24947 -1.18496,0 -2.01651,-0.22868 -0.83155,-0.22867 -1.39284,-0.5405 l 0.49893,-1.41364 q 0.47814,0.27026 1.24732,0.49893 0.76918,0.22868 1.55915,0.22868 0.89392,0 1.476,-0.35341 0.58209,-0.35341 0.58209,-1.26811 z"
           inkscape:connector-curvature="0" />
        <path
           id="path5019"
           style="font-style:normal;font-variant:normal;font-weight:normal;font-stretch:normal;font-family:'PT Sans';-inkscape-font-specification:'PT Sans'"
           d="m 316.22356,423.54682 q 0,-0.49893 0.33262,-0.81076 0.33262,-0.31183 0.85233,-0.31183 0.64445,0 1.03944,0.45735 0.41577,0.45735 0.41577,1.33048 0,0.74839 -0.20788,1.30969 -0.20789,0.56129 -0.54051,0.95628 -0.33262,0.41577 -0.7276,0.66524 -0.39499,0.27025 -0.78998,0.39498 l -0.51971,-0.81076 q 0.74839,-0.29104 1.1018,-0.9147 0.3742,-0.60287 0.3742,-1.22653 -0.1871,0.0624 -0.35341,0.0624 -0.41578,0 -0.70682,-0.27025 -0.27025,-0.29104 -0.27025,-0.83155 z"
           inkscape:connector-curvature="0" />
        <path
           id="path5021"
           style="font-style:normal;font-variant:normal;font-weight:normal;font-stretch:normal;font-family:'PT Sans';-inkscape-font-specification:'PT Sans'"
           d="m 325.41348,414.04638 1.14337,0 0.31184,1.24732 0.0831,0 q 0.47814,-0.72761 1.22653,-1.1018 0.76919,-0.39499 1.74626,-0.39499 2.07887,0 3.09752,1.22654 1.01864,1.22653 1.01864,4.01222 0,1.30969 -0.35341,2.36991 -0.33261,1.03944 -0.95628,1.76704 -0.62366,0.72761 -1.51757,1.12259 -0.87313,0.39499 -1.95414,0.39499 -0.76918,0 -1.22654,-0.10394 -0.43656,-0.0832 -0.95628,-0.31183 l 0,4.32405 -1.66309,0 0,-14.5521 z m 4.19932,1.20574 q -1.06023,0 -1.68389,0.5613 -0.60287,0.5405 -0.85234,1.66309 l 0,5.15561 q 0.3742,0.29104 0.85234,0.45735 0.47814,0.14552 1.26811,0.14552 1.43442,0 2.26597,-1.06023 0.85234,-1.08101 0.85234,-3.15988 0,-0.85234 -0.14552,-1.53837 -0.14552,-0.70681 -0.47814,-1.18495 -0.31183,-0.49893 -0.83155,-0.76918 -0.49893,-0.27026 -1.24732,-0.27026 z"
           inkscape:connector-curvature="0" />
        <path
           id="path5023"
           style="font-style:normal;font-variant:normal;font-weight:normal;font-stretch:normal;font-family:'PT Sans';-inkscape-font-specification:'PT Sans'"
           d="m 338.5107,421.88372 q 0,0.72761 0.24946,1.03944 0.24946,0.31183 0.70682,0.31183 0.27025,0 0.58208,-0.0416 0.31183,-0.0416 0.70682,-0.1871 l 0.1871,1.30969 q -0.33262,0.16631 -0.9355,0.27026 -0.58208,0.10394 -1.01864,0.10394 -0.9355,0 -1.53837,-0.51972 -0.60287,-0.54051 -0.60287,-1.80862 l 0,-12.47323 1.6631,0 0,11.99509 z"
           inkscape:connector-curvature="0" />
        <path
           id="path5025"
           style="font-style:normal;font-variant:normal;font-weight:normal;font-stretch:normal;font-family:'PT Sans';-inkscape-font-specification:'PT Sans'"
           d="m 342.58463,414.81556 q 0.78997,-0.47814 1.82941,-0.70682 1.06022,-0.22867 2.2036,-0.22867 1.08101,0 1.72546,0.29104 0.66524,0.29104 0.99786,0.76918 0.35341,0.45735 0.45735,1.01865 0.12474,0.56129 0.12474,1.12259 0,1.24732 -0.0624,2.43228 -0.0624,1.18496 -0.0624,2.24518 0,0.76918 0.0624,1.45521 0.0624,0.68603 0.22868,1.26811 l -1.22654,0 -0.43656,-1.45521 -0.10395,0 q -0.18709,0.29104 -0.47814,0.58209 -0.27025,0.27025 -0.66523,0.49893 -0.39499,0.20788 -0.91471,0.3534 -0.51972,0.14552 -1.18495,0.14552 -0.66524,0 -1.24733,-0.20788 -0.56129,-0.20789 -0.97707,-0.58209 -0.41577,-0.39498 -0.66524,-0.93549 -0.22867,-0.54051 -0.22867,-1.22653 0,-0.91471 0.37419,-1.51758 0.3742,-0.62366 1.03944,-0.97707 0.68603,-0.3742 1.62152,-0.51972 0.95628,-0.16631 2.09966,-0.16631 0.29104,0 0.5613,0 0.29104,0 0.58208,0.0416 0.0624,-0.62366 0.0624,-1.12259 0,-1.14338 -0.45736,-1.60073 -0.45735,-0.45735 -1.66309,-0.45735 -0.35341,0 -0.76919,0.0624 -0.39498,0.0416 -0.83154,0.14552 -0.41578,0.0832 -0.81076,0.22868 -0.3742,0.12473 -0.66524,0.29104 l -0.51972,-1.24732 z m 2.952,8.33627 q 0.58208,0 1.03943,-0.14552 0.45735,-0.16631 0.78997,-0.39498 0.33262,-0.24947 0.54051,-0.54051 0.22868,-0.29104 0.33262,-0.56129 l 0,-1.72547 q -0.29104,-0.0208 -0.60287,-0.0208 -0.29104,-0.0208 -0.58209,-0.0208 -0.64445,0 -1.26811,0.0832 -0.60287,0.0624 -1.08101,0.27025 -0.45735,0.1871 -0.7484,0.54051 -0.27025,0.33262 -0.27025,0.85234 0,0.7276 0.51972,1.20574 0.51972,0.45735 1.33048,0.45735 z"
           inkscape:connector-curvature="0" />
        <path
           id="path5027"
           style="font-style:normal;font-variant:normal;font-weight:normal;font-stretch:normal;font-family:'PT Sans';-inkscape-font-specification:'PT Sans'"
           d="m 360.15305,423.75471 q -0.62366,0.45735 -1.476,0.68602 -0.85234,0.24947 -1.78783,0.24947 -1.20575,0 -2.0373,-0.3742 -0.83154,-0.39498 -1.37205,-1.1018 -0.51972,-0.7276 -0.76918,-1.72546 -0.22868,-1.01865 -0.22868,-2.24518 0,-2.64017 1.16417,-4.03302 1.16417,-1.41363 3.34698,-1.41363 0.99786,0 1.68389,0.16631 0.70681,0.14552 1.26811,0.43656 l -0.47814,1.43443 q -0.47814,-0.27026 -1.06022,-0.41578 -0.58209,-0.16631 -1.24733,-0.16631 -2.952,0 -2.952,3.99144 0,0.78997 0.14553,1.51757 0.16631,0.70682 0.51971,1.26811 0.3742,0.54051 0.95628,0.87313 0.60288,0.33262 1.476,0.33262 0.7484,0 1.33048,-0.22868 0.60287,-0.22867 0.97707,-0.51971 l 0.54051,1.26811 z"
           inkscape:connector-curvature="0" />
        <path
           id="path5029"
           style="font-style:normal;font-variant:normal;font-weight:normal;font-stretch:normal;font-family:'PT Sans';-inkscape-font-specification:'PT Sans'"
           d="m 369.54402,423.60919 q -0.62366,0.49893 -1.57994,0.78997 -0.93549,0.29104 -1.99572,0.29104 -1.18496,0 -2.05808,-0.3742 -0.87313,-0.39498 -1.43442,-1.1018 -0.5613,-0.7276 -0.83155,-1.72546 -0.27026,-0.99786 -0.27026,-2.24518 0,-2.66096 1.18496,-4.0538 1.18496,-1.39285 3.38856,-1.39285 0.70682,0 1.41364,0.16631 0.70681,0.14552 1.26811,0.58209 0.56129,0.43656 0.9147,1.24732 0.35341,0.78997 0.35341,2.09966 0,0.68603 -0.12473,1.51758 l -6.67318,0 q 0,0.9147 0.1871,1.62152 0.1871,0.70681 0.58208,1.20574 0.39499,0.47814 1.01865,0.74839 0.64445,0.24947 1.55915,0.24947 0.70682,0 1.41363,-0.24947 0.70682,-0.24946 1.06023,-0.58208 l 0.62366,1.20575 z m -3.57566,-8.35707 q -1.22653,0 -1.97493,0.64445 -0.7276,0.64445 -0.87312,2.20361 l 5.1556,0 q 0,-1.57995 -0.60287,-2.20361 -0.60288,-0.64445 -1.70468,-0.64445 z"
           inkscape:connector-curvature="0" />
        <path
           id="path5031"
           style="font-style:normal;font-variant:normal;font-weight:normal;font-stretch:normal;font-family:'PT Sans';-inkscape-font-specification:'PT Sans'"
           d="m 380.84724,420.78192 0.58208,1.99572 0.10395,0 0.45735,-2.01651 2.0165,-6.71475 1.68389,0 -3.07673,9.33413 q -0.35341,1.01865 -0.70682,1.97493 -0.33262,0.95628 -0.74839,1.70467 -0.41577,0.7484 -0.93549,1.18496 -0.51972,0.45735 -1.20575,0.45735 -0.74839,0 -1.22653,-0.20789 l 0.29104,-1.43442 q 0.27025,0.10395 0.51972,0.10395 0.58208,0 1.12259,-0.62366 0.54051,-0.60288 0.89391,-2.09967 l -4.17853,-10.39435 1.91256,0 2.49465,6.73554 z"
           inkscape:connector-curvature="0" />
        <path
           id="path5033"
           style="font-style:normal;font-variant:normal;font-weight:normal;font-stretch:normal;font-family:'PT Sans';-inkscape-font-specification:'PT Sans'"
           d="m 386.66971,419.24356 q 0,-2.64017 1.16417,-4.03302 1.18495,-1.41363 3.38856,-1.41363 1.16417,0 2.0165,0.39499 0.87313,0.37419 1.43443,1.1018 0.56129,0.70682 0.83154,1.72546 0.27026,0.99786 0.27026,2.2244 0,2.64016 -1.18496,4.0538 -1.16417,1.39284 -3.36777,1.39284 -1.16417,0 -2.0373,-0.3742 -0.85233,-0.39498 -1.41363,-1.1018 -0.56129,-0.7276 -0.83155,-1.72546 -0.27025,-1.01865 -0.27025,-2.24518 z m 1.72546,0 q 0,0.78997 0.14552,1.51757 0.16631,0.72761 0.49893,1.26811 0.33262,0.54051 0.87313,0.87313 0.54051,0.33262 1.30969,0.33262 2.82726,0.0208 2.82726,-3.99143 0,-0.81076 -0.16631,-1.53837 -0.14552,-0.7276 -0.47814,-1.26811 -0.33262,-0.54051 -0.87312,-0.85234 -0.54051,-0.33262 -1.30969,-0.33262 -2.82727,-0.0208 -2.82727,3.99144 z"
           inkscape:connector-curvature="0" />
        <path
           id="path5035"
           style="font-style:normal;font-variant:normal;font-weight:normal;font-stretch:normal;font-family:'PT Sans';-inkscape-font-specification:'PT Sans'"
           d="m 399.87378,414.04638 0,5.92478 q 0,0.81076 0.0831,1.43442 0.10395,0.60287 0.33262,1.01865 0.22868,0.39498 0.62367,0.60287 0.39498,0.20789 0.99785,0.20789 0.5613,0 0.99786,-0.16631 0.43657,-0.1871 0.76918,-0.49893 0.35341,-0.31183 0.60288,-0.70682 0.27025,-0.41577 0.43656,-0.87312 l 0,-6.94343 1.6631,0 0,7.44236 q 0,0.74839 0.0416,1.55915 0.0624,0.78997 0.18709,1.39284 l -1.14338,0 -0.41577,-1.6423 -0.10394,0 q -0.47814,0.81076 -1.2889,1.35126 -0.81076,0.54051 -2.05809,0.54051 -0.83155,0 -1.476,-0.20789 -0.62366,-0.1871 -1.06022,-0.68603 -0.41578,-0.49892 -0.64445,-1.33047 -0.20789,-0.85234 -0.20789,-2.14124 l 0,-6.27819 1.6631,0 z"
           inkscape:connector-curvature="0" />
        <path
           id="path5037"
           style="font-style:normal;font-variant:normal;font-weight:normal;font-stretch:normal;font-family:'PT Sans';-inkscape-font-specification:'PT Sans'"
           d="m 414.48955,415.64711 q -0.62366,-0.20789 -1.18496,-0.20789 -0.89391,0 -1.41363,0.49893 -0.51972,0.47814 -0.64445,1.22653 l 0,7.27605 -1.6631,0 0,-10.39435 1.16417,0 0.31183,1.26811 0.0832,0 q 0.39498,-0.70682 0.93549,-1.08102 0.56129,-0.39498 1.41363,-0.39498 0.60287,0 1.35127,0.20789 l -0.35341,1.60073 z"
           inkscape:connector-curvature="0" />
        <path
           id="path5039"
           style="font-style:normal;font-variant:normal;font-weight:normal;font-stretch:normal;font-family:'PT Sans';-inkscape-font-specification:'PT Sans'"
           d="m 422.21095,409.88863 1.66309,0 0,5.17639 0.0832,0 q 0.47814,-0.60287 1.20574,-0.93549 0.7484,-0.33262 1.62152,-0.33262 2.01651,0 3.01437,1.2889 1.01864,1.2889 1.01864,3.99144 0,2.72332 -1.33047,4.13695 -1.33048,1.41363 -3.74197,1.41363 -1.16417,0 -2.12045,-0.24946 -0.93549,-0.24947 -1.41363,-0.54051 l 0,-13.94923 z m 4.28247,5.36349 q -1.03943,0 -1.68388,0.58209 -0.64446,0.58208 -0.9355,1.6423 l 0,5.23876 q 0.39499,0.22868 0.95628,0.35341 0.5613,0.10394 1.16417,0.10394 1.41363,0 2.24518,-0.99786 0.85234,-0.99785 0.85234,-3.1183 0,-0.81076 -0.14552,-1.51758 -0.14552,-0.70682 -0.45735,-1.20574 -0.31183,-0.49893 -0.81076,-0.78998 -0.47814,-0.29104 -1.18496,-0.29104 z"
           inkscape:connector-curvature="0" />
        <path
           id="path5041"
           style="font-style:normal;font-variant:normal;font-weight:normal;font-stretch:normal;font-family:'PT Sans';-inkscape-font-specification:'PT Sans'"
           d="m 432.83528,419.24356 q 0,-2.64017 1.16417,-4.03302 1.18496,-1.41363 3.38856,-1.41363 1.16417,0 2.01651,0.39499 0.87312,0.37419 1.43442,1.1018 0.56129,0.70682 0.83155,1.72546 0.27025,0.99786 0.27025,2.2244 0,2.64016 -1.18496,4.0538 -1.16416,1.39284 -3.36777,1.39284 -1.16417,0 -2.03729,-0.3742 -0.85234,-0.39498 -1.41364,-1.1018 -0.56129,-0.7276 -0.83154,-1.72546 -0.27026,-1.01865 -0.27026,-2.24518 z m 1.72547,0 q 0,0.78997 0.14552,1.51757 0.16631,0.72761 0.49893,1.26811 0.33262,0.54051 0.87312,0.87313 0.54051,0.33262 1.30969,0.33262 2.82727,0.0208 2.82727,-3.99143 0,-0.81076 -0.16631,-1.53837 -0.14552,-0.7276 -0.47814,-1.26811 -0.33262,-0.54051 -0.87313,-0.85234 -0.54051,-0.33262 -1.30969,-0.33262 -2.82726,-0.0208 -2.82726,3.99144 z"
           inkscape:connector-curvature="0" />
        <path
           id="path5043"
           style="font-style:normal;font-variant:normal;font-weight:normal;font-stretch:normal;font-family:'PT Sans';-inkscape-font-specification:'PT Sans'"
           d="m 443.9605,419.24356 q 0,-2.64017 1.16416,-4.03302 1.18496,-1.41363 3.38856,-1.41363 1.16417,0 2.01651,0.39499 0.87313,0.37419 1.43442,1.1018 0.5613,0.70682 0.83155,1.72546 0.27025,0.99786 0.27025,2.2244 0,2.64016 -1.18495,4.0538 -1.16417,1.39284 -3.36778,1.39284 -1.16416,0 -2.03729,-0.3742 -0.85234,-0.39498 -1.41363,-1.1018 -0.5613,-0.7276 -0.83155,-1.72546 -0.27025,-1.01865 -0.27025,-2.24518 z m 1.72546,0 q 0,0.78997 0.14552,1.51757 0.16631,0.72761 0.49893,1.26811 0.33262,0.54051 0.87313,0.87313 0.5405,0.33262 1.30968,0.33262 2.82727,0.0208 2.82727,-3.99143 0,-0.81076 -0.16631,-1.53837 -0.14552,-0.7276 -0.47814,-1.26811 -0.33262,-0.54051 -0.87313,-0.85234 -0.5405,-0.33262 -1.30969,-0.33262 -2.82726,-0.0208 -2.82726,3.99144 z"
           inkscape:connector-curvature="0" />
        <path
           id="path5045"
           style="font-style:normal;font-variant:normal;font-weight:normal;font-stretch:normal;font-family:'PT Sans';-inkscape-font-specification:'PT Sans'"
           d="m 458.28717,419.76327 -0.95628,0 0,4.67746 -1.6631,0 0,-14.5521 1.6631,0 0,8.856 0.85234,-0.29105 3.22225,-4.4072 1.93335,0 -3.18067,4.17853 -0.85234,0.68603 1.03943,0.83154 3.47172,4.69825 -2.05808,0 -3.47172,-4.67746 z"
           inkscape:connector-curvature="0" />
        <path
           id="path5047"
           style="font-style:normal;font-variant:normal;font-weight:normal;font-stretch:normal;font-family:'PT Sans';-inkscape-font-specification:'PT Sans'"
           d="m 471.70661,424.44073 0,-5.8832 q 0,-0.83155 -0.0831,-1.43442 -0.0624,-0.62367 -0.27026,-1.03944 -0.20788,-0.41577 -0.60287,-0.62366 -0.3742,-0.20789 -0.99786,-0.20789 -0.95628,0 -1.60073,0.58209 -0.62366,0.58208 -0.87313,1.45521 l 0,7.15131 -1.66309,0 0,-10.39435 1.16417,0 0.31183,1.26811 0.0831,0 q 0.5613,-0.66524 1.2889,-1.08102 0.7484,-0.43656 1.93335,-0.43656 0.99786,0 1.62152,0.39499 0.64445,0.37419 0.99786,1.33048 0.47814,-0.81076 1.30969,-1.26812 0.85234,-0.45735 1.91256,-0.45735 0.87313,0 1.476,0.20789 0.60287,0.1871 0.99786,0.68603 0.39498,0.49893 0.56129,1.35126 0.1871,0.85234 0.1871,2.16203 l 0,6.23661 -1.66309,0 0,-6.2574 q 0,-0.74839 -0.0832,-1.2889 -0.0624,-0.56129 -0.29104,-0.9147 -0.20789,-0.3742 -0.60287,-0.54051 -0.3742,-0.1871 -0.99786,-0.1871 -1.03944,0 -1.62152,0.58209 -0.58209,0.58208 -0.83155,1.66309 l 0,6.94343 -1.6631,0 z"
           inkscape:connector-curvature="0" />
        <path
           id="path5049"
           style="font-style:normal;font-variant:normal;font-weight:normal;font-stretch:normal;font-family:'PT Sans';-inkscape-font-specification:'PT Sans'"
           d="m 482.34002,414.81556 q 0.78997,-0.47814 1.8294,-0.70682 1.06023,-0.22867 2.20361,-0.22867 1.08101,0 1.72546,0.29104 0.66524,0.29104 0.99786,0.76918 0.35341,0.45735 0.45735,1.01865 0.12473,0.56129 0.12473,1.12259 0,1.24732 -0.0624,2.43228 -0.0624,1.18496 -0.0624,2.24518 0,0.76918 0.0624,1.45521 0.0624,0.68603 0.22867,1.26811 l -1.22653,0 -0.43657,-1.45521 -0.10394,0 q -0.1871,0.29104 -0.47814,0.58209 -0.27025,0.27025 -0.66524,0.49893 -0.39498,0.20788 -0.9147,0.3534 -0.51972,0.14552 -1.18496,0.14552 -0.66524,0 -1.24732,-0.20788 -0.5613,-0.20789 -0.97707,-0.58209 -0.41578,-0.39498 -0.66524,-0.93549 -0.22868,-0.54051 -0.22868,-1.22653 0,-0.91471 0.3742,-1.51758 0.3742,-0.62366 1.03944,-0.97707 0.68602,-0.3742 1.62152,-0.51972 0.95628,-0.16631 2.09966,-0.16631 0.29104,0 0.56129,0 0.29104,0 0.58209,0.0416 0.0624,-0.62366 0.0624,-1.12259 0,-1.14338 -0.45735,-1.60073 -0.45735,-0.45735 -1.6631,-0.45735 -0.3534,0 -0.76918,0.0624 -0.39498,0.0416 -0.83155,0.14552 -0.41577,0.0832 -0.81076,0.22868 -0.37419,0.12473 -0.66524,0.29104 l -0.51971,-1.24732 z m 2.95199,8.33627 q 0.58209,0 1.03944,-0.14552 0.45735,-0.16631 0.78997,-0.39498 0.33262,-0.24947 0.54051,-0.54051 0.22867,-0.29104 0.33262,-0.56129 l 0,-1.72547 q -0.29105,-0.0208 -0.60288,-0.0208 -0.29104,-0.0208 -0.58208,-0.0208 -0.64445,0 -1.26811,0.0832 -0.60287,0.0624 -1.08102,0.27025 -0.45735,0.1871 -0.74839,0.54051 -0.27025,0.33262 -0.27025,0.85234 0,0.7276 0.51972,1.20574 0.51971,0.45735 1.33047,0.45735 z"
           inkscape:connector-curvature="0" />
        <path
           id="path5051"
           style="font-style:normal;font-variant:normal;font-weight:normal;font-stretch:normal;font-family:'PT Sans';-inkscape-font-specification:'PT Sans'"
           d="m 497.72563,415.64711 q -0.62366,-0.20789 -1.18495,-0.20789 -0.89392,0 -1.41364,0.49893 -0.51971,0.47814 -0.64445,1.22653 l 0,7.27605 -1.66309,0 0,-10.39435 1.16416,0 0.31184,1.26811 0.0831,0 q 0.39499,-0.70682 0.93549,-1.08102 0.5613,-0.39498 1.41364,-0.39498 0.60287,0 1.35126,0.20789 l -0.35341,1.60073 z"
           inkscape:connector-curvature="0" />
        <path
           id="path5053"
           style="font-style:normal;font-variant:normal;font-weight:normal;font-stretch:normal;font-family:'PT Sans';-inkscape-font-specification:'PT Sans'"
           d="m 502.50379,419.76327 -0.95629,0 0,4.67746 -1.66309,0 0,-14.5521 1.66309,0 0,8.856 0.85234,-0.29105 3.22225,-4.4072 1.93335,0 -3.18067,4.17853 -0.85234,0.68603 1.03944,0.83154 3.47171,4.69825 -2.05808,0 -3.47171,-4.67746 z"
           inkscape:connector-curvature="0" />
        <path
           id="path5055"
           style="font-style:normal;font-variant:normal;font-weight:normal;font-stretch:normal;font-family:'PT Sans';-inkscape-font-specification:'PT Sans'"
           d="m 514.40565,421.61347 q 0,-0.62366 -0.3742,-0.97707 -0.3742,-0.35341 -0.93549,-0.58208 -0.54051,-0.24947 -1.20575,-0.45736 -0.64445,-0.22867 -1.20574,-0.56129 -0.54051,-0.35341 -0.91471,-0.89392 -0.37419,-0.5405 -0.37419,-1.45521 0,-1.49678 0.85234,-2.18281 0.85233,-0.70682 2.36991,-0.70682 1.12259,0 1.87098,0.20789 0.76919,0.1871 1.33048,0.45735 l -0.39498,1.37206 q -0.47814,-0.22868 -1.16417,-0.39499 -0.66524,-0.1871 -1.43442,-0.1871 -0.91471,0 -1.35127,0.31183 -0.41577,0.31183 -0.41577,1.08102 0,0.5405 0.37419,0.85233 0.3742,0.29105 0.91471,0.54051 0.56129,0.22868 1.20574,0.45735 0.66524,0.22868 1.20575,0.60287 0.56129,0.3742 0.93549,0.95629 0.3742,0.56129 0.3742,1.49678 0,0.66524 -0.22868,1.24733 -0.20789,0.58208 -0.66524,0.99785 -0.45735,0.41578 -1.14338,0.64445 -0.66524,0.24947 -1.57994,0.24947 -1.18496,0 -2.01651,-0.22868 -0.83155,-0.22867 -1.39284,-0.5405 l 0.49893,-1.41364 q 0.47814,0.27026 1.24732,0.49893 0.76918,0.22868 1.55916,0.22868 0.89391,0 1.47599,-0.35341 0.58209,-0.35341 0.58209,-1.26811 z"
           inkscape:connector-curvature="0" />
        <path
           id="path5057"
           style="font-style:normal;font-variant:normal;font-weight:normal;font-stretch:normal;font-family:'PT Sans';-inkscape-font-specification:'PT Sans'"
           d="m 530.83816,424.44073 0,-5.92478 q 0,-0.81076 -0.10394,-1.41363 -0.0832,-0.62366 -0.33262,-1.01865 -0.24946,-0.41577 -0.68603,-0.62366 -0.41577,-0.20789 -1.1018,-0.20789 -0.97707,0 -1.76704,0.64445 -0.78997,0.62366 -1.01865,1.62152 l 0,6.92264 -1.66309,0 0,-14.5521 1.66309,0 0,5.32191 0.0832,0 q 0.5405,-0.64445 1.2889,-1.01864 0.76918,-0.39499 1.89177,-0.39499 0.87313,0 1.51758,0.20789 0.64445,0.1871 1.06022,0.68603 0.43657,0.49893 0.62366,1.35126 0.20789,0.83155 0.20789,2.12045 l 0,6.27819 -1.6631,0 z"
           inkscape:connector-curvature="0" />
        <path
           id="path5059"
           style="font-style:normal;font-variant:normal;font-weight:normal;font-stretch:normal;font-family:'PT Sans';-inkscape-font-specification:'PT Sans'"
           d="m 543.1217,423.60919 q -0.62366,0.49893 -1.57994,0.78997 -0.93549,0.29104 -1.99572,0.29104 -1.18495,0 -2.05808,-0.3742 -0.87313,-0.39498 -1.43442,-1.1018 -0.5613,-0.7276 -0.83155,-1.72546 -0.27025,-0.99786 -0.27025,-2.24518 0,-2.66096 1.18495,-4.0538 1.18496,-1.39285 3.38857,-1.39285 0.70681,0 1.41363,0.16631 0.70681,0.14552 1.26811,0.58209 0.5613,0.43656 0.9147,1.24732 0.35341,0.78997 0.35341,2.09966 0,0.68603 -0.12473,1.51758 l -6.67318,0 q 0,0.9147 0.1871,1.62152 0.1871,0.70681 0.58208,1.20574 0.39499,0.47814 1.01865,0.74839 0.64445,0.24947 1.55915,0.24947 0.70682,0 1.41364,-0.24947 0.70681,-0.24946 1.06022,-0.58208 l 0.62366,1.20575 z m -3.57566,-8.35707 q -1.22653,0 -1.97492,0.64445 -0.72761,0.64445 -0.87313,2.20361 l 5.1556,0 q 0,-1.57995 -0.60287,-2.20361 -0.60287,-0.64445 -1.70468,-0.64445 z"
           inkscape:connector-curvature="0" />
        <path
           id="path5061"
           style="font-style:normal;font-variant:normal;font-weight:normal;font-stretch:normal;font-family:'PT Sans';-inkscape-font-specification:'PT Sans'"
           d="m 550.99672,415.64711 q -0.62366,-0.20789 -1.18496,-0.20789 -0.89391,0 -1.41363,0.49893 -0.51972,0.47814 -0.64445,1.22653 l 0,7.27605 -1.6631,0 0,-10.39435 1.16417,0 0.31183,1.26811 0.0832,0 q 0.39498,-0.70682 0.93549,-1.08102 0.5613,-0.39498 1.41363,-0.39498 0.60288,0 1.35127,0.20789 l -0.35341,1.60073 z"
           inkscape:connector-curvature="0" />
        <path
           id="path5063"
           style="font-style:normal;font-variant:normal;font-weight:normal;font-stretch:normal;font-family:'PT Sans';-inkscape-font-specification:'PT Sans'"
           d="m 560.74338,423.60919 q -0.62366,0.49893 -1.57995,0.78997 -0.93549,0.29104 -1.99571,0.29104 -1.18496,0 -2.05809,-0.3742 -0.87312,-0.39498 -1.43442,-1.1018 -0.56129,-0.7276 -0.83155,-1.72546 -0.27025,-0.99786 -0.27025,-2.24518 0,-2.66096 1.18496,-4.0538 1.18495,-1.39285 3.38856,-1.39285 0.70682,0 1.41363,0.16631 0.70682,0.14552 1.26811,0.58209 0.5613,0.43656 0.91471,1.24732 0.35341,0.78997 0.35341,2.09966 0,0.68603 -0.12474,1.51758 l -6.67318,0 q 0,0.9147 0.1871,1.62152 0.1871,0.70681 0.58209,1.20574 0.39498,0.47814 1.01864,0.74839 0.64445,0.24947 1.55916,0.24947 0.70681,0 1.41363,-0.24947 0.70682,-0.24946 1.06023,-0.58208 l 0.62366,1.20575 z m -3.57566,-8.35707 q -1.22654,0 -1.97493,0.64445 -0.72761,0.64445 -0.87313,2.20361 l 5.15561,0 q 0,-1.57995 -0.60288,-2.20361 -0.60287,-0.64445 -1.70467,-0.64445 z"
           inkscape:connector-curvature="0" />
        <path
           id="path5065"
           style="font-style:normal;font-variant:normal;font-weight:normal;font-stretch:normal;font-family:'PT Sans';-inkscape-font-specification:'PT Sans'"
           d="m 568.6928,419.24356 q 0,-2.64017 1.16416,-4.03302 1.18496,-1.41363 3.38856,-1.41363 1.16417,0 2.01651,0.39499 0.87313,0.37419 1.43442,1.1018 0.5613,0.70682 0.83155,1.72546 0.27025,0.99786 0.27025,2.2244 0,2.64016 -1.18495,4.0538 -1.16417,1.39284 -3.36778,1.39284 -1.16416,0 -2.03729,-0.3742 -0.85234,-0.39498 -1.41363,-1.1018 -0.5613,-0.7276 -0.83155,-1.72546 -0.27025,-1.01865 -0.27025,-2.24518 z m 1.72546,0 q 0,0.78997 0.14552,1.51757 0.16631,0.72761 0.49893,1.26811 0.33262,0.54051 0.87313,0.87313 0.5405,0.33262 1.30968,0.33262 2.82727,0.0208 2.82727,-3.99143 0,-0.81076 -0.16631,-1.53837 -0.14552,-0.7276 -0.47814,-1.26811 -0.33262,-0.54051 -0.87313,-0.85234 -0.5405,-0.33262 -1.30969,-0.33262 -2.82726,-0.0208 -2.82726,3.99144 z"
           inkscape:connector-curvature="0" />
        <path
           id="path5067"
           style="font-style:normal;font-variant:normal;font-weight:normal;font-stretch:normal;font-family:'PT Sans';-inkscape-font-specification:'PT Sans'"
           d="m 587.07327,424.44073 0,-5.92478 q 0,-1.62152 -0.47814,-2.43228 -0.45735,-0.83155 -1.70467,-0.83155 -1.10181,0 -1.82941,0.60287 -0.70682,0.58209 -0.99786,1.476 l 0,7.10974 -1.6631,0 0,-10.39435 1.16417,0 0.31183,1.26811 0.0832,0 q 0.49893,-0.66524 1.33048,-1.08102 0.85233,-0.43656 2.0165,-0.43656 0.85234,0 1.49679,0.20789 0.64445,0.1871 1.06022,0.68603 0.43657,0.49893 0.64445,1.35126 0.22868,0.83155 0.22868,2.12045 l 0,6.27819 -1.6631,0 z"
           inkscape:connector-curvature="0" />
        <path
           id="path5069"
           style="font-style:normal;font-variant:normal;font-weight:normal;font-stretch:normal;font-family:'PT Sans';-inkscape-font-specification:'PT Sans'"
           d="m 595.95947,414.04638 1.62152,0 0,-2.05809 1.66309,-0.47814 0,2.53623 2.82727,0 0,1.45521 -2.82727,0 0,5.75847 q 0,1.08101 0.27026,1.53837 0.27025,0.43656 0.9147,0.43656 0.54051,0 0.9147,-0.10394 0.3742,-0.12474 0.83155,-0.31184 l 0.3742,1.26812 q -0.5613,0.27025 -1.22654,0.43656 -0.66523,0.16631 -1.43442,0.16631 -1.26811,0 -1.78783,-0.70682 -0.51971,-0.7276 -0.51971,-2.41149 l 0,-6.0703 -1.62152,0 0,-1.45521 z"
           inkscape:connector-curvature="0" />
        <path
           id="path5071"
           style="font-style:normal;font-variant:normal;font-weight:normal;font-stretch:normal;font-family:'PT Sans';-inkscape-font-specification:'PT Sans'"
           d="m 611.06961,424.44073 0,-5.92478 q 0,-0.81076 -0.10394,-1.41363 -0.0832,-0.62366 -0.33262,-1.01865 -0.24947,-0.41577 -0.68603,-0.62366 -0.41578,-0.20789 -1.1018,-0.20789 -0.97707,0 -1.76704,0.64445 -0.78998,0.62366 -1.01865,1.62152 l 0,6.92264 -1.6631,0 0,-14.5521 1.6631,0 0,5.32191 0.0832,0 q 0.54051,-0.64445 1.2889,-1.01864 0.76919,-0.39499 1.89178,-0.39499 0.87312,0 1.51757,0.20789 0.64445,0.1871 1.06023,0.68603 0.43656,0.49893 0.62366,1.35126 0.20789,0.83155 0.20789,2.12045 l 0,6.27819 -1.6631,0 z"
           inkscape:connector-curvature="0" />
        <path
           id="path5073"
           style="font-style:normal;font-variant:normal;font-weight:normal;font-stretch:normal;font-family:'PT Sans';-inkscape-font-specification:'PT Sans'"
           d="m 623.35315,423.60919 q -0.62366,0.49893 -1.57994,0.78997 -0.9355,0.29104 -1.99572,0.29104 -1.18496,0 -2.05808,-0.3742 -0.87313,-0.39498 -1.43443,-1.1018 -0.56129,-0.7276 -0.83154,-1.72546 -0.27026,-0.99786 -0.27026,-2.24518 0,-2.66096 1.18496,-4.0538 1.18496,-1.39285 3.38856,-1.39285 0.70682,0 1.41363,0.16631 0.70682,0.14552 1.26811,0.58209 0.5613,0.43656 0.91471,1.24732 0.35341,0.78997 0.35341,2.09966 0,0.68603 -0.12474,1.51758 l -6.67317,0 q 0,0.9147 0.18709,1.62152 0.1871,0.70681 0.58209,1.20574 0.39498,0.47814 1.01865,0.74839 0.64445,0.24947 1.55915,0.24947 0.70682,0 1.41363,-0.24947 0.70682,-0.24946 1.06023,-0.58208 l 0.62366,1.20575 z m -3.57566,-8.35707 q -1.22654,0 -1.97493,0.64445 -0.7276,0.64445 -0.87313,2.20361 l 5.15561,0 q 0,-1.57995 -0.60288,-2.20361 -0.60287,-0.64445 -1.70467,-0.64445 z"
           inkscape:connector-curvature="0" />
        <path
           id="path5075"
           style="font-style:normal;font-variant:normal;font-weight:normal;font-stretch:normal;font-family:'PT Sans';-inkscape-font-specification:'PT Sans'"
           d="m 631.88465,409.88863 1.6631,0 0,5.17639 0.0832,0 q 0.47814,-0.60287 1.20575,-0.93549 0.74839,-0.33262 1.62152,-0.33262 2.0165,0 3.01436,1.2889 1.01865,1.2889 1.01865,3.99144 0,2.72332 -1.33048,4.13695 -1.33048,1.41363 -3.74197,1.41363 -1.16416,0 -2.12045,-0.24946 -0.93549,-0.24947 -1.41363,-0.54051 l 0,-13.94923 z m 4.28248,5.36349 q -1.03944,0 -1.68389,0.58209 -0.64445,0.58208 -0.93549,1.6423 l 0,5.23876 q 0.39498,0.22868 0.95628,0.35341 0.5613,0.10394 1.16417,0.10394 1.41363,0 2.24518,-0.99786 0.85234,-0.99785 0.85234,-3.1183 0,-0.81076 -0.14552,-1.51758 -0.14553,-0.70682 -0.45736,-1.20574 -0.31183,-0.49893 -0.81076,-0.78998 -0.47814,-0.29104 -1.18495,-0.29104 z"
           inkscape:connector-curvature="0" />
        <path
           id="path5077"
           style="font-style:normal;font-variant:normal;font-weight:normal;font-stretch:normal;font-family:'PT Sans';-inkscape-font-specification:'PT Sans'"
           d="m 642.50899,419.24356 q 0,-2.64017 1.16417,-4.03302 1.18495,-1.41363 3.38856,-1.41363 1.16417,0 2.0165,0.39499 0.87313,0.37419 1.43442,1.1018 0.5613,0.70682 0.83155,1.72546 0.27026,0.99786 0.27026,2.2244 0,2.64016 -1.18496,4.0538 -1.16417,1.39284 -3.36777,1.39284 -1.16417,0 -2.0373,-0.3742 -0.85233,-0.39498 -1.41363,-1.1018 -0.5613,-0.7276 -0.83155,-1.72546 -0.27025,-1.01865 -0.27025,-2.24518 z m 1.72546,0 q 0,0.78997 0.14552,1.51757 0.16631,0.72761 0.49893,1.26811 0.33262,0.54051 0.87313,0.87313 0.5405,0.33262 1.30969,0.33262 2.82726,0.0208 2.82726,-3.99143 0,-0.81076 -0.16631,-1.53837 -0.14552,-0.7276 -0.47814,-1.26811 -0.33262,-0.54051 -0.87312,-0.85234 -0.54051,-0.33262 -1.30969,-0.33262 -2.82727,-0.0208 -2.82727,3.99144 z"
           inkscape:connector-curvature="0" />
        <path
           id="path5079"
           style="font-style:normal;font-variant:normal;font-weight:normal;font-stretch:normal;font-family:'PT Sans';-inkscape-font-specification:'PT Sans'"
           d="m 653.63417,419.24356 q 0,-2.64017 1.16417,-4.03302 1.18496,-1.41363 3.38856,-1.41363 1.16417,0 2.01651,0.39499 0.87312,0.37419 1.43442,1.1018 0.56129,0.70682 0.83155,1.72546 0.27025,0.99786 0.27025,2.2244 0,2.64016 -1.18496,4.0538 -1.16417,1.39284 -3.36777,1.39284 -1.16417,0 -2.03729,-0.3742 -0.85234,-0.39498 -1.41364,-1.1018 -0.56129,-0.7276 -0.83155,-1.72546 -0.27025,-1.01865 -0.27025,-2.24518 z m 1.72546,0 q 0,0.78997 0.14553,1.51757 0.16631,0.72761 0.49893,1.26811 0.33261,0.54051 0.87312,0.87313 0.54051,0.33262 1.30969,0.33262 2.82727,0.0208 2.82727,-3.99143 0,-0.81076 -0.16631,-1.53837 -0.14552,-0.7276 -0.47814,-1.26811 -0.33262,-0.54051 -0.87313,-0.85234 -0.54051,-0.33262 -1.30969,-0.33262 -2.82727,-0.0208 -2.82727,3.99144 z"
           inkscape:connector-curvature="0" />
        <path
           id="path5081"
           style="font-style:normal;font-variant:normal;font-weight:normal;font-stretch:normal;font-family:'PT Sans';-inkscape-font-specification:'PT Sans'"
           d="m 667.96085,419.76327 -0.95628,0 0,4.67746 -1.6631,0 0,-14.5521 1.6631,0 0,8.856 0.85233,-0.29105 3.22226,-4.4072 1.93335,0 -3.18068,4.17853 -0.85234,0.68603 1.03944,0.83154 3.47172,4.69825 -2.05809,0 -3.47171,-4.67746 z"
           inkscape:connector-curvature="0" />
        <path
           id="path5083"
           style="font-style:normal;font-variant:normal;font-weight:normal;font-stretch:normal;font-family:'PT Sans';-inkscape-font-specification:'PT Sans'"
           d="m 681.38032,424.44073 0,-5.8832 q 0,-0.83155 -0.0832,-1.43442 -0.0624,-0.62367 -0.27025,-1.03944 -0.20789,-0.41577 -0.60287,-0.62366 -0.3742,-0.20789 -0.99786,-0.20789 -0.95628,0 -1.60073,0.58209 -0.62366,0.58208 -0.87313,1.45521 l 0,7.15131 -1.6631,0 0,-10.39435 1.16417,0 0.31183,1.26811 0.0832,0 q 0.56129,-0.66524 1.2889,-1.08102 0.74839,-0.43656 1.93335,-0.43656 0.99786,0 1.62152,0.39499 0.64445,0.37419 0.99786,1.33048 0.47814,-0.81076 1.30969,-1.26812 0.85233,-0.45735 1.91256,-0.45735 0.87312,0 1.476,0.20789 0.60287,0.1871 0.99785,0.68603 0.39499,0.49893 0.5613,1.35126 0.1871,0.85234 0.1871,2.16203 l 0,6.23661 -1.6631,0 0,-6.2574 q 0,-0.74839 -0.0832,-1.2889 -0.0624,-0.56129 -0.29105,-0.9147 -0.20788,-0.3742 -0.60287,-0.54051 -0.3742,-0.1871 -0.99786,-0.1871 -1.03943,0 -1.62152,0.58209 -0.58208,0.58208 -0.83155,1.66309 l 0,6.94343 -1.66309,0 z"
           inkscape:connector-curvature="0" />
        <path
           id="path5085"
           style="font-style:normal;font-variant:normal;font-weight:normal;font-stretch:normal;font-family:'PT Sans';-inkscape-font-specification:'PT Sans'"
           d="m 692.01372,414.81556 q 0.78997,-0.47814 1.82941,-0.70682 1.06022,-0.22867 2.2036,-0.22867 1.08102,0 1.72547,0.29104 0.66524,0.29104 0.99785,0.76918 0.35341,0.45735 0.45736,1.01865 0.12473,0.56129 0.12473,1.12259 0,1.24732 -0.0624,2.43228 -0.0624,1.18496 -0.0624,2.24518 0,0.76918 0.0624,1.45521 0.0624,0.68603 0.22868,1.26811 l -1.22654,0 -0.43656,-1.45521 -0.10394,0 q -0.1871,0.29104 -0.47814,0.58209 -0.27026,0.27025 -0.66524,0.49893 -0.39499,0.20788 -0.91471,0.3534 -0.51971,0.14552 -1.18495,0.14552 -0.66524,0 -1.24733,-0.20788 -0.56129,-0.20789 -0.97707,-0.58209 -0.41577,-0.39498 -0.66523,-0.93549 -0.22868,-0.54051 -0.22868,-1.22653 0,-0.91471 0.3742,-1.51758 0.37419,-0.62366 1.03943,-0.97707 0.68603,-0.3742 1.62152,-0.51972 0.95628,-0.16631 2.09966,-0.16631 0.29105,0 0.5613,0 0.29104,0 0.58208,0.0416 0.0624,-0.62366 0.0624,-1.12259 0,-1.14338 -0.45735,-1.60073 -0.45735,-0.45735 -1.6631,-0.45735 -0.35341,0 -0.76918,0.0624 -0.39499,0.0416 -0.83155,0.14552 -0.41578,0.0832 -0.81076,0.22868 -0.3742,0.12473 -0.66524,0.29104 l -0.51972,-1.24732 z m 2.952,8.33627 q 0.58208,0 1.03944,-0.14552 0.45735,-0.16631 0.78997,-0.39498 0.33262,-0.24947 0.5405,-0.54051 0.22868,-0.29104 0.33262,-0.56129 l 0,-1.72547 q -0.29104,-0.0208 -0.60287,-0.0208 -0.29104,-0.0208 -0.58208,-0.0208 -0.64445,0 -1.26812,0.0832 -0.60287,0.0624 -1.08101,0.27025 -0.45735,0.1871 -0.74839,0.54051 -0.27026,0.33262 -0.27026,0.85234 0,0.7276 0.51972,1.20574 0.51972,0.45735 1.33048,0.45735 z"
           inkscape:connector-curvature="0" />
        <path
           id="path5087"
           style="font-style:normal;font-variant:normal;font-weight:normal;font-stretch:normal;font-family:'PT Sans';-inkscape-font-specification:'PT Sans'"
           d="m 707.39934,415.64711 q -0.62366,-0.20789 -1.18496,-0.20789 -0.89391,0 -1.41363,0.49893 -0.51972,0.47814 -0.64445,1.22653 l 0,7.27605 -1.6631,0 0,-10.39435 1.16417,0 0.31183,1.26811 0.0832,0 q 0.39498,-0.70682 0.93549,-1.08102 0.56129,-0.39498 1.41363,-0.39498 0.60287,0 1.35127,0.20789 l -0.35341,1.60073 z"
           inkscape:connector-curvature="0" />
        <path
           id="path5089"
           style="font-style:normal;font-variant:normal;font-weight:normal;font-stretch:normal;font-family:'PT Sans';-inkscape-font-specification:'PT Sans'"
           d="m 712.17746,419.76327 -0.95628,0 0,4.67746 -1.6631,0 0,-14.5521 1.6631,0 0,8.856 0.85234,-0.29105 3.22225,-4.4072 1.93335,0 -3.18067,4.17853 -0.85234,0.68603 1.03943,0.83154 3.47172,4.69825 -2.05808,0 -3.47172,-4.67746 z"
           inkscape:connector-curvature="0" />
        <path
           id="path5091"
           style="font-style:normal;font-variant:normal;font-weight:normal;font-stretch:normal;font-family:'PT Sans';-inkscape-font-specification:'PT Sans'"
           d="m 724.07935,421.61347 q 0,-0.62366 -0.37419,-0.97707 -0.3742,-0.35341 -0.93549,-0.58208 -0.54051,-0.24947 -1.20575,-0.45736 -0.64445,-0.22867 -1.20575,-0.56129 -0.5405,-0.35341 -0.9147,-0.89392 -0.3742,-0.5405 -0.3742,-1.45521 0,-1.49678 0.85234,-2.18281 0.85234,-0.70682 2.36991,-0.70682 1.1226,0 1.87099,0.20789 0.76918,0.1871 1.33048,0.45735 l -0.39499,1.37206 q -0.47814,-0.22868 -1.16417,-0.39499 -0.66524,-0.1871 -1.43442,-0.1871 -0.9147,0 -1.35126,0.31183 -0.41578,0.31183 -0.41578,1.08102 0,0.5405 0.3742,0.85233 0.37419,0.29105 0.9147,0.54051 0.5613,0.22868 1.20575,0.45735 0.66524,0.22868 1.20574,0.60287 0.5613,0.3742 0.9355,0.95629 0.37419,0.56129 0.37419,1.49678 0,0.66524 -0.22867,1.24733 -0.20789,0.58208 -0.66524,0.99785 -0.45735,0.41578 -1.14338,0.64445 -0.66524,0.24947 -1.57994,0.24947 -1.18496,0 -2.01651,-0.22868 -0.83155,-0.22867 -1.39284,-0.5405 l 0.49892,-1.41364 q 0.47815,0.27026 1.24733,0.49893 0.76918,0.22868 1.55915,0.22868 0.89392,0 1.476,-0.35341 0.58208,-0.35341 0.58208,-1.26811 z"
           inkscape:connector-curvature="0" />
        <path
           id="path5093"
           style="font-style:normal;font-variant:normal;font-weight:normal;font-stretch:normal;font-family:'PT Sans';-inkscape-font-specification:'PT Sans'"
           d="m 733.83866,409.88863 1.6631,0 0,5.17639 0.0832,0 q 0.47814,-0.60287 1.20575,-0.93549 0.74839,-0.33262 1.62152,-0.33262 2.0165,0 3.01436,1.2889 1.01865,1.2889 1.01865,3.99144 0,2.72332 -1.33048,4.13695 -1.33048,1.41363 -3.74197,1.41363 -1.16416,0 -2.12045,-0.24946 -0.93549,-0.24947 -1.41363,-0.54051 l 0,-13.94923 z m 4.28248,5.36349 q -1.03944,0 -1.68389,0.58209 -0.64445,0.58208 -0.93549,1.6423 l 0,5.23876 q 0.39498,0.22868 0.95628,0.35341 0.5613,0.10394 1.16417,0.10394 1.41363,0 2.24518,-0.99786 0.85234,-0.99785 0.85234,-3.1183 0,-0.81076 -0.14552,-1.51758 -0.14553,-0.70682 -0.45736,-1.20574 -0.31183,-0.49893 -0.81076,-0.78998 -0.47814,-0.29104 -1.18495,-0.29104 z"
           inkscape:connector-curvature="0" />
        <path
           id="path5095"
           style="font-style:normal;font-variant:normal;font-weight:normal;font-stretch:normal;font-family:'PT Sans';-inkscape-font-specification:'PT Sans'"
           d="m 744.87877,414.81556 q 0.78997,-0.47814 1.82941,-0.70682 1.06022,-0.22867 2.2036,-0.22867 1.08102,0 1.72547,0.29104 0.66524,0.29104 0.99786,0.76918 0.3534,0.45735 0.45735,1.01865 0.12473,0.56129 0.12473,1.12259 0,1.24732 -0.0624,2.43228 -0.0624,1.18496 -0.0624,2.24518 0,0.76918 0.0624,1.45521 0.0624,0.68603 0.22868,1.26811 l -1.22653,0 -0.43657,-1.45521 -0.10394,0 q -0.1871,0.29104 -0.47814,0.58209 -0.27026,0.27025 -0.66524,0.49893 -0.39499,0.20788 -0.9147,0.3534 -0.51972,0.14552 -1.18496,0.14552 -0.66524,0 -1.24732,-0.20788 -0.5613,-0.20789 -0.97707,-0.58209 -0.41578,-0.39498 -0.66524,-0.93549 -0.22868,-0.54051 -0.22868,-1.22653 0,-0.91471 0.3742,-1.51758 0.37419,-0.62366 1.03943,-0.97707 0.68603,-0.3742 1.62152,-0.51972 0.95628,-0.16631 2.09966,-0.16631 0.29105,0 0.5613,0 0.29104,0 0.58208,0.0416 0.0624,-0.62366 0.0624,-1.12259 0,-1.14338 -0.45735,-1.60073 -0.45735,-0.45735 -1.6631,-0.45735 -0.35341,0 -0.76918,0.0624 -0.39499,0.0416 -0.83155,0.14552 -0.41577,0.0832 -0.81076,0.22868 -0.3742,0.12473 -0.66524,0.29104 l -0.51972,-1.24732 z m 2.952,8.33627 q 0.58208,0 1.03944,-0.14552 0.45735,-0.16631 0.78997,-0.39498 0.33262,-0.24947 0.5405,-0.54051 0.22868,-0.29104 0.33262,-0.56129 l 0,-1.72547 q -0.29104,-0.0208 -0.60287,-0.0208 -0.29104,-0.0208 -0.58208,-0.0208 -0.64445,0 -1.26811,0.0832 -0.60288,0.0624 -1.08102,0.27025 -0.45735,0.1871 -0.74839,0.54051 -0.27026,0.33262 -0.27026,0.85234 0,0.7276 0.51972,1.20574 0.51972,0.45735 1.33048,0.45735 z"
           inkscape:connector-curvature="0" />
        <path
           id="path5097"
           style="font-style:normal;font-variant:normal;font-weight:normal;font-stretch:normal;font-family:'PT Sans';-inkscape-font-specification:'PT Sans'"
           d="m 760.26439,415.64711 q -0.62366,-0.20789 -1.18496,-0.20789 -0.89391,0 -1.41363,0.49893 -0.51972,0.47814 -0.64445,1.22653 l 0,7.27605 -1.6631,0 0,-10.39435 1.16417,0 0.31183,1.26811 0.0832,0 q 0.39498,-0.70682 0.93549,-1.08102 0.5613,-0.39498 1.41363,-0.39498 0.60288,0 1.35127,0.20789 l -0.35341,1.60073 z"
           inkscape:connector-curvature="0" />
        <path
           id="path5099"
           style="font-style:normal;font-variant:normal;font-weight:normal;font-stretch:normal;font-family:'PT Sans';-inkscape-font-specification:'PT Sans'"
           d="m 760.58238,423.48445 q 0,-0.56129 0.31183,-0.87312 0.33262,-0.33262 0.87313,-0.33262 0.5613,0 0.89391,0.33262 0.33262,0.31183 0.33262,0.87312 0,0.54051 -0.33262,0.87313 -0.33261,0.33262 -0.89391,0.33262 -0.54051,0 -0.87313,-0.33262 -0.31183,-0.33262 -0.31183,-0.87313 z"
           inkscape:connector-curvature="0" />
      </g>
    </g>
    <path
       style="fill:#aa8800;fill-rule:evenodd;stroke:#000000;stroke-width:5;stroke-linecap:square;stroke-linejoin:miter;stroke-miterlimit:4;stroke-dasharray:none;stroke-opacity:1"
       d="m 79.999997,493.60337 0,62.62899"
       id="path4449"
       inkscape:connector-curvature="0" />
    <path
       inkscape:connector-curvature="0"
       id="path4451"
       d="m 79.999997,668.31098 0,-59.92951"
       style="fill:none;fill-rule:evenodd;stroke:#000000;stroke-width:5;stroke-linecap:square;stroke-linejoin:miter;stroke-miterlimit:4;stroke-dasharray:none;stroke-opacity:1;marker-start:url(#Arrow1Mstart)" />
    <text
       xml:space="preserve"
       style="font-style:normal;font-weight:normal;font-size:14.52580547px;line-height:125%;font-family:sans-serif;letter-spacing:0px;word-spacing:0px;fill:#000000;fill-opacity:1;stroke:none;stroke-width:1px;stroke-linecap:butt;stroke-linejoin:miter;stroke-opacity:1"
       x="80.155579"
       y="578.28076"
       id="text4184"
       sodipodi:linespacing="125%"><tspan
         sodipodi:role="line"
         id="tspan4186"
         x="80.155579"
         y="578.28076"
         style="font-style:normal;font-variant:normal;font-weight:normal;font-stretch:normal;font-family:sans-serif;-inkscape-font-specification:sans-serif;text-align:center;text-anchor:middle">To use on other websites, drag this</tspan><tspan
         sodipodi:role="line"
         x="80.155571"
         y="596.43799"
         style="font-style:normal;font-variant:normal;font-weight:normal;font-stretch:normal;font-family:sans-serif;-inkscape-font-specification:sans-serif;text-align:center;text-anchor:middle"
         id="tspan4447">link to your bookmarks bar.</tspan></text>
  </g>
</svg>
